<svg xmlns="http://www.w3.org/2000/svg" xmlns:xlink="http://www.w3.org/1999/xlink" viewBox="0 0 1200 1200"><g style="fill:#151515"><svg fill="#151515" xmlns:dc="http://purl.org/dc/elements/1.1/" xmlns:cc="http://creativecommons.org/ns#" xmlns:rdf="http://www.w3.org/1999/02/22-rdf-syntax-ns#" xmlns:svg="http://www.w3.org/2000/svg" xmlns="http://www.w3.org/2000/svg" xmlns:sodipodi="http://sodipodi.sourceforge.net/DTD/sodipodi-0.dtd" xmlns:inkscape="http://www.inkscape.org/namespaces/inkscape" viewBox="7 7 91 91"><g transform="translate(0,-952.36218)"><path style="text-indent:0;text-transform:none;direction:ltr;block-progression:tb;baseline-shift:baseline;color:#000000;enable-background:accumulate;" d="M 43 7 C 32.542121 7 24 15.54212 24 26 C 24 30.1197 25.182675 34.43724 27.5625 37.75 A 3.000651 3.000651 0 1 0 32.4375 34.25 C 31.045205 32.3119 30 28.83908 30 26 C 30 18.78476 35.784759 13 43 13 C 50.215241 13 56 18.78476 56 26 C 56 28.83908 54.954795 32.3119 53.5625 34.25 A 3.000651 3.000651 0 1 0 58.4375 37.75 C 60.817325 34.43724 62 30.1197 62 26 C 62 15.54212 53.457879 7 43 7 z M 43 17 C 38.082355 17 34 21.05934 34 26 L 34 48.34375 C 32.509142 46.34025 30.905021 44.80645 29 44.28125 C 26.399972 43.56444 24.06969 44.49689 22.5 45.40625 A 3.0003 3.0003 0 0 0 22.34375 45.5 C 20.643024 46.63418 18.927251 48.192 18.28125 50.5 C 17.635249 52.808 18.117699 55.2286 19.21875 58.0625 A 3.0003 3.0003 0 0 0 19.25 58.15625 L 22.25 65.15625 A 3.0003 3.0003 0 0 0 22.28125 65.28125 C 28.004449 77.33265 33.510844 85.69235 38.6875 91.90625 A 3.0003 3.0003 0 0 0 41 93 L 68 93 A 3.0003 3.0003 0 0 0 69.78125 92.40625 C 75.9356 87.84715 79.888018 77.92015 81.4375 68.40625 C 82.212241 63.64935 82.317549 59.00655 81.125 55.03125 C 79.932451 51.05605 76.83178 47.52539 72.34375 47 A 3.0003 3.0003 0 0 0 72 47 C 71.456556 47 70.750092 47.0983 70.0625 47.1875 C 69.474758 46.05723 68.652638 45.14984 67.78125 44.53125 C 66.069174 43.31587 64.409048 42.97573 62.9375 43 C 61.895802 43.0174 60.912211 43.35733 60 43.84375 C 59.634995 43.41086 59.327057 42.86821 58.90625 42.5625 C 57.199032 41.32222 55.444357 41 54 41 C 53.325259 41 52.649427 41.10748 52 41.25 C 51.9953 35.95926 51.9935 29.81617 52 26 C 52.0087 21.05312 47.917634 17 43 17 z M 43 23 C 44.846426 23 46.003279 24.10909 46 25.96875 C 45.991 31.21637 45.97272 42.06556 46 47 A 3.0003 3.0003 0 0 0 51.6875 48.28125 C 51.916394 47.80545 53.33454 47 54 47 C 54.293543 47 55.017498 47.14653 55.375 47.40625 C 55.732502 47.666 56 47.8151 56 49 A 3.0003 3.0003 0 0 0 61.6875 50.34375 C 62.407661 48.90305 62.395507 49.0106 63.03125 49 C 63.06937 48.9994 63.902793 49.1467 64.3125 49.4375 C 64.722207 49.7283 65 49.8722 65 51 A 3.0003 3.0003 0 0 0 69.90625 53.3125 C 69.879844 53.354631 70.12072 53.19475 70.46875 53.125 C 70.86617 53.045 71.362936 53.04225 71.78125 53.03125 C 73.736955 53.30725 74.624956 54.2498 75.375 56.75 C 76.14606 59.3203 76.179505 63.2653 75.5 67.4375 C 74.204803 75.39 70.002691 84.0485 66.71875 87 L 42.5625 87 C 37.946916 81.2991 32.985458 73.7776 27.71875 62.6875 L 27.6875 62.6875 L 24.8125 55.90625 C 23.941001 53.66325 23.939269 52.5653 24.0625 52.125 C 24.177417 51.7144 24.560733 51.28765 25.5625 50.59375 C 26.44129 50.09575 26.966075 49.9411 27.40625 50.0625 C 27.857143 50.1868 28.903423 50.7796 30.3125 53.375 C 30.3222 53.393 30.33405 53.38825 30.34375 53.40625 L 34.25 62.21875 A 3.0003 3.0003 0 0 0 40 61 L 40 26 C 40 24.13412 41.153545 23 43 23 z " transform="translate(0,952.36218)" fill="#151515" fill-opacity="1" stroke="none" marker="none" visibility="visible" display="inline" overflow="visible"></path></g></svg></g></svg>
