<?xml version="1.0" encoding="utf-8"?>
<!-- Generator: Adobe Illustrator 24.2.1, SVG Export Plug-In . SVG Version: 6.00 Build 0)  -->
<svg version="1.1"
	 id="Layer_1" xmlns:cc="http://creativecommons.org/ns#" xmlns:dc="http://purl.org/dc/elements/1.1/" xmlns:inkscape="http://www.inkscape.org/namespaces/inkscape" xmlns:rdf="http://www.w3.org/1999/02/22-rdf-syntax-ns#" xmlns:sodipodi="http://sodipodi.sourceforge.net/DTD/sodipodi-0.dtd" xmlns:svg="http://www.w3.org/2000/svg"
	 xmlns="http://www.w3.org/2000/svg" xmlns:xlink="http://www.w3.org/1999/xlink" x="0px" y="0px" viewBox="0 0 1200 1200"
	 style="enable-background:new 0 0 1200 1200;" xml:space="preserve">
<style type="text/css">
	.st0{fill:#151515;}
</style>
<g>
	<g transform="translate(0,-952.36218)">
		<path class="st0" d="M490.7,983.4c-137.9,0-250.5,112.6-250.5,250.5c0,54.3,15.6,111.3,47,154.9c12.7,17.8,37.5,21.8,55.2,9.1
			c17.8-12.7,21.8-37.5,9.1-55.2l0,0c-18.4-25.6-32.1-71.4-32.1-108.8c0-95.1,76.3-171.4,171.4-171.4s171.4,76.3,171.4,171.4
			c0,37.4-13.8,83.2-32.1,108.8c-12.7,17.8-8.7,42.5,9.1,55.2c17.8,12.7,42.5,8.7,55.2-9.1l0,0c31.4-43.7,47-100.6,47-154.9
			C741.3,1096,628.6,983.4,490.7,983.4z M490.7,1115.2c-64.8,0-118.7,53.5-118.7,118.7v294.6c-19.7-26.4-40.8-46.6-65.9-53.6
			c-34.3-9.5-65,2.8-85.7,14.8c-0.7,0.4-1.4,0.8-2.1,1.2c-22.4,15-45.1,35.5-53.6,65.9c-8.5,30.4-2.2,62.4,12.4,99.7
			c0.1,0.4,0.3,0.8,0.4,1.2l39.6,92.3c0.1,0.6,0.3,1.1,0.4,1.6c75.5,158.9,148.1,269.2,216.3,351.1c7.5,9.1,18.7,14.4,30.5,14.4h356
			c8.5,0,16.7-2.8,23.5-7.8c81.2-60.1,133.3-191,153.7-316.5c10.2-62.7,11.6-124-4.1-176.4c-15.7-52.4-56.6-99-115.8-105.9
			c-1.5-0.1-3-0.1-4.5,0c-7.2,0-16.5,1.3-25.5,2.5c-7.8-14.9-18.6-26.9-30.1-35c-22.6-16-44.5-20.5-63.9-20.2
			c-13.7,0.2-26.7,4.7-38.7,11.1c-4.8-5.7-8.9-12.9-14.4-16.9c-22.5-16.4-45.7-20.6-64.7-20.6c-8.9,0-17.8,1.4-26.4,3.3
			c-0.1-69.8-0.1-150.8,0-201.1C609.5,1168.7,555.6,1115.2,490.7,1115.2z M490.7,1194.4c24.3,0,39.6,14.6,39.6,39.1
			c-0.1,69.2-0.4,212.3,0,277.3c0.4,21.8,18.4,39.2,40.2,38.9c14.8-0.3,28.2-8.7,34.8-22c3-6.3,21.7-16.9,30.5-16.9
			c3.9,0,13.4,1.9,18.1,5.4c4.7,3.4,8.2,5.4,8.2,21c-0.1,21.9,17.6,39.6,39.4,39.7c15.1,0,28.9-8.5,35.6-22
			c9.5-19,9.3-17.6,17.7-17.7c0.5,0,11.5,1.9,16.9,5.8s9.1,5.7,9.1,20.6c0,21.9,17.8,39.5,39.6,39.5c9.1,0,18-3.2,25.1-9
			c-0.3,0.6,2.8-1.6,7.4-2.5c5.2-1.1,11.8-1.1,17.3-1.2c25.8,3.6,37.5,16.1,47.4,49c10.2,33.9,10.6,85.9,1.6,140.9
			c-17.1,104.9-72.5,219-115.8,258H485c-60.9-75.2-126.3-174.4-195.7-320.6h-0.4l-37.9-89.4c-11.5-29.6-11.5-44.1-9.9-49.9
			c1.5-5.4,6.6-11,19.8-20.2c11.6-6.6,18.5-8.6,24.3-7c5.9,1.6,19.7,9.5,38.3,43.7c0.1,0.2,0.3,0.2,0.4,0.4l51.5,116.2
			c8.7,20,32.1,29.2,52.1,20.4c14.5-6.3,23.8-20.7,23.7-36.5v-461.5C451.2,1209.3,466.4,1194.4,490.7,1194.4z"/>
	</g>
</g>
</svg>
