<?xml version="1.0" encoding="utf-8"?>
<!-- Generator: Adobe Illustrator 24.2.1, SVG Export Plug-In . SVG Version: 6.00 Build 0)  -->
<svg version="1.1" id="Layer_1" xmlns="http://www.w3.org/2000/svg" xmlns:xlink="http://www.w3.org/1999/xlink" x="0px" y="0px"
	 viewBox="0 0 448 512" style="enable-background:new 0 0 448 512;" xml:space="preserve">
<style type="text/css">
	.st0{fill:#CCCCCC;}
</style>
<path class="st0" d="M416,18.5H31.9C14.3,18.5,0,33,0,50.8v383.4c0,17.8,14.3,32.3,31.9,32.3H416c17.6,0,32-14.5,32-32.3V50.8
	C448,33,433.6,18.5,416,18.5z M354.4,226.9c-2.5,0.2-5,0.4-7.5,0.4c-28.5,0-53.5-14.6-68.1-36.8c0,58.1,0,124.2,0,125.3
	c0,51.1-41.5,92.6-92.6,92.6s-92.6-41.5-92.6-92.6s41.5-92.6,92.6-92.6c1.9,0,3.8,0.2,5.7,0.3v45.6c-1.9-0.2-3.8-0.6-5.7-0.6
	c-26.1,0-47.3,21.1-47.3,47.3s21.1,47.3,47.3,47.3s49.2-20.6,49.2-46.7c0-1,0.5-212.7,0.5-212.7h43.6c4.1,39,35.6,69.8,74.9,72.6
	V226.9z"/>
</svg>
