<svg xmlns="http://www.w3.org/2000/svg" xmlns:xlink="http://www.w3.org/1999/xlink" viewBox="0 0 183.58 213.35"><defs><style>.cls-1,.cls-2{fill-rule:evenodd;}.cls-1{fill:url(#linear-gradient);}.cls-2{fill:url(#linear-gradient-2);}</style><linearGradient id="linear-gradient" x1="140.39" y1="200.68" x2="140.39" y2="24" gradientUnits="userSpaceOnUse"><stop offset="0" stop-color="#ac2020"/><stop offset="1" stop-color="#ff9c33"/></linearGradient><linearGradient id="linear-gradient-2" x1="59.41" y1="200.68" x2="59.41" y2="24" xlink:href="#linear-gradient"/></defs><g id="Layer_2" data-name="Layer 2"><g id="volume_logos_w_E" data-name="volume logos w/ E"><path class="cls-1" d="M140.34,121.56,102.6,159.29l-5.4-5.41,32.33-32.32ZM183.58,13.8V113.92h-7.64V0h7.64V13.8ZM137.75,76.49v37.43h-7.63V71.33h7.63v5.16ZM153,55.59v58.33h-7.64V47.55H153v8Zm15.27-20.9v79.23h-7.63V23.78h7.64V34.69ZM173.12,132l-7.58,7.58-41.31,41.31-5.41-5.4,54-53.95h10.8L173.12,132ZM162,121.56l-7.23,7.23L113.42,170.1l-5.4-5.4,43.14-43.14Z"/><path class="cls-2" d="M44.54,122.85,108,186.31l5.41,5.41,5.4-5.4L54.05,121.56H43.24l1.3,1.29ZM0,13.8V113.92H7.64V0H0V13.8ZM45.82,76.49v37.43h7.64V71.33H45.82v5.16ZM30.55,55.59v58.33h7.64V47.55H30.55v8ZM15.27,34.69v79.23h7.64V23.78H15.27V34.69Zm7.65,109.78,63.45,63.46,5.42,5.42,5.4-5.4L10.82,121.57H0L5.42,127l5,5.05,5.42,5.41L18,139.6l4.88,4.87Zm10.8-10.81,63.46,63.46,5.42,5.42,5.4-5.4L32.42,121.56H21.61l5.08,5.07,2.16,2.16,4.87,4.87Z"/></g></g></svg>