<svg xmlns="http://www.w3.org/2000/svg" xmlns:xlink="http://www.w3.org/1999/xlink" viewBox="0 0 610.14 87.08"><defs><style>.cls-1{fill-rule:evenodd;fill:url(#linear-gradient);}.cls-2{fill:url(#linear-gradient-2);}</style><linearGradient id="linear-gradient" x1="255.41" y1="80.05" x2="255.41" y2="7.79" gradientUnits="userSpaceOnUse"><stop offset="0" stop-color="#ac2020"/><stop offset="1" stop-color="#ff9c33"/></linearGradient><linearGradient id="linear-gradient-2" x1="579.95" y1="90" x2="579.95" y2="3.68" xlink:href="#linear-gradient"/></defs><g id="Layer_2" data-name="Layer 2"><g id="volume_logos_w_E" data-name="volume logos w/ E"><path id="SVGID" class="cls-1" d="M74.22,1.47,42.37,73.85l-32-72.38H0L37.11,85.61H47.52L84.63,1.47Zm81.56,85.61c23.39,0,43-20,43-43.6S179.17,0,155.78,0s-43.11,19.84-43.11,43.48,19.84,43.6,43.11,43.6Zm0-8.82c-18.12,0-33.43-15.92-33.43-34.78S137.66,8.82,155.78,8.82s33.31,15.92,33.31,34.66-15.18,34.78-33.31,34.78Zm85-1.72V1.47h-9.56V85.61H286.7V76.54ZM354.3,87.08c20.58,0,35.15-15.07,35.15-36.38V1.47H379.9V50.7c0,16.17-10.65,27.68-25.6,27.68S328.71,66.87,328.71,50.7V1.47h-9.55V50.7c0,21.31,14.57,36.38,35.14,36.38Zm75-1.47h9.55V22L470,80.71,501.27,22V85.61h9.55V1.47h-9.55L470,60.13,438.81,1.47h-9.55V85.61Z"/><rect class="cls-2" x="549.77" y="1.47" width="60.38" height="9.06"/><rect class="cls-2" x="549.77" y="38.1" width="60.38" height="9.06"/><rect class="cls-2" x="549.77" y="76.54" width="60.38" height="9.06"/></g></g></svg>