<svg id="Custom_Icon_SVGs" data-name="Custom Icon SVGs" xmlns="http://www.w3.org/2000/svg" viewBox="0 0 20 20"><defs><style>.cls-1{fill:#141414;}</style></defs><path class="cls-1" d="M18,12V9H15.88a5.87,5.87,0,0,0-.63-1.58l1.52-1.53L14.65,3.72,13.14,5.23a5.65,5.65,0,0,0-1.62-.67V2.41h-3V4.58a6.06,6.06,0,0,0-1.59.68L5.4,3.72,3.28,5.84,4.84,7.41A5.87,5.87,0,0,0,4.24,9H2v3h2.3a5.77,5.77,0,0,0,.64,1.51l-1.61,1.6,2.12,2.13,1.63-1.63a5.68,5.68,0,0,0,1.46.6v2.28h3V16.18a5.93,5.93,0,0,0,1.5-.59l1.6,1.59,2.12-2.12L15.17,13.5A6.11,6.11,0,0,0,15.84,12Zm-8,2a3.5,3.5,0,1,1,3.5-3.5A3.5,3.5,0,0,1,10,13.93Z"/></svg>