<svg id="Custom_Icon_SVGs" data-name="Custom Icon SVGs" xmlns="http://www.w3.org/2000/svg" viewBox="0 0 20 20"><defs><style>.cls-1{fill:#141414;}</style></defs><polygon class="cls-1" points="16.95 9.14 15.45 8.73 15.45 11.01 14.68 11.01 14.67 8.52 13.17 8.11 13.17 11.01 12.38 11.01 12.39 7.9 10.84 7.48 10.84 11.01 10.07 11.01 10.07 9.9 10.07 7.27 10.07 5.09 7.82 5.09 7.82 9.9 7.82 9.9 7.82 13.31 4.24 10.22 3.05 11.01 5.26 14.24 7.83 17.99 7.83 17.99 7.83 17.99 15.3 17.94 15.3 17.94 16.95 14.73 16.95 9.14 16.95 9.14"/><rect class="cls-1" x="7.82" y="2.01" width="2.25" height="2.06"/></svg>